PathFileType	4	(X/Y/Z)	s11c0102.trc
DataRate	CameraRate	NumFrames	NumMarkers	Units	OrigDataRate	OrigDataStartFrame	OrigNumFrames
200	200	4	48	mm	200	1250	2000
Frame#	Time	racr			lacr			c7			jug			rlel			rdr			llel			ldr			s2			lic			ric			lasi			rasi			rpsi			lpsi			rgt			lgt			rth1			rth2			rth3			rth4			rlfc			rmfc			rsh1			rsh2			rsh3			rsh4			rlmal			rcal			rtoe			rmt5			lth1			lth2			lth4			lth3			llfc			lmfc			llmal			lcal			lmt5			lsh1			lsh2			lsh3			lsh4			ltoe			SBIKE			LBIKE			RBIKE			
		X1	Y1	Z1	X2	Y2	Z2	X3	Y3	Z3	X4	Y4	Z4	X5	Y5	Z5	X6	Y6	Z6	X7	Y7	Z7	X8	Y8	Z8	X9	Y9	Z9	X10	Y10	Z10	X11	Y11	Z11	X12	Y12	Z12	X13	Y13	Z13	X14	Y14	Z14	X15	Y15	Z15	X16	Y16	Z16	X17	Y17	Z17	X18	Y18	Z18	X19	Y19	Z19	X20	Y20	Z20	X21	Y21	Z21	X22	Y22	Z22	X23	Y23	Z23	X24	Y24	Z24	X25	Y25	Z25	X26	Y26	Z26	X27	Y27	Z27	X28	Y28	Z28	X29	Y29	Z29	X30	Y30	Z30	X31	Y31	Z31	X32	Y32	Z32	X33	Y33	Z33	X34	Y34	Z34	X35	Y35	Z35	X36	Y36	Z36	X37	Y37	Z37	X38	Y38	Z38	X39	Y39	Z39	X40	Y40	Z40	X41	Y41	Z41	X42	Y42	Z42	X43	Y43	Z43	X44	Y44	Z44	X45	Y45	Z45	X46	Y46	Z46	X47	Y47	Z47	X48	Y48	Z48	
1250	6.2500	489.943258	1360.602839	-73.374426	526.332416	1365.531239	-358.141749	454.054782	1436.342757	-226.543446	454.299706	1246.143228	-238.851024	549.808122	1109.447587	34.754711	766.211162	938.198605	-68.330799	606.255138	1174.381627	-586.698483	769.779727	925.085954	-475.516769	-116.295507	1202.216099	-298.611241	119.561780	1205.216972	-478.948803	75.596158	1239.834191	-79.769153	149.232313	1139.261247	-444.570440	107.279781	1190.726982	-132.101074	-82.115814	1281.736890	-254.710706	-74.377016	1266.070681	-345.745489	61.798391	1135.277183	-53.022656	14.359355	1062.689824	-481.544190	200.277411	1096.880752	-46.880235	289.349857	1101.624714	-54.331421	367.609689	1062.405406	-60.891691	295.464352	1135.217097	-70.241991	472.187973	1040.165114	-73.300082	490.199858	1015.123519	-209.538337	411.580692	898.760588	-66.084202	387.477451	815.446020	-83.380004	325.892259	753.953742	-86.296960	413.764242	804.315232	-111.156411	243.218092	634.803883	-98.246752	186.229410	657.099004	-146.830702	386.302387	451.020459	-154.909298	317.499567	473.605494	-84.019772	80.744373	931.095052	-498.097399	131.831858	862.928310	-491.039063	166.566677	875.859329	-486.963019	141.939554	774.520411	-476.323429	195.396881	650.022707	-446.106438	209.551374	645.585011	-317.298685	71.813375	233.069258	-421.856176	19.887688	181.874107	-383.200981	225.143268	154.531522	-454.743522	157.617499	532.876587	-464.661090	157.603388	447.896582	-448.919432	114.605718	371.124848	-443.843480	187.842437	443.698879	-425.875861	318.077571	191.412594	-388.178202	-216.105354	954.544525	-259.215073	-17.904828	80.733641	-461.176012	-17.896886	81.192949	-62.376426	
1251	6.2550	490.729608	1358.811838	-73.611300	526.939138	1362.589382	-355.927942	455.044514	1434.415911	-225.466720	454.058863	1244.253239	-236.572047	548.834619	1108.222161	33.319745	766.257302	937.997036	-68.442808	613.492200	1176.955388	-584.521180	769.785942	925.000471	-475.612388	-115.670427	1204.509889	-301.408772	119.863397	1205.339584	-478.727347	74.494647	1242.405206	-79.811990	149.042857	1139.014290	-444.538538	105.365465	1192.468196	-132.134516	-83.020295	1284.655168	-254.279304	-74.320278	1268.013307	-345.608155	59.952843	1137.090230	-52.799526	13.007770	1063.938529	-481.668379	198.723081	1098.810167	-46.991548	287.581779	1103.048010	-55.032301	365.634065	1063.482508	-62.109512	293.837686	1136.919198	-70.909426	469.624941	1042.344641	-74.309174	487.408069	1017.400563	-210.724522	412.470085	898.609651	-67.632416	390.218748	814.476910	-84.238736	329.882909	751.721444	-86.709674	416.265518	804.004130	-112.741561	248.361453	632.075797	-98.211824	190.167217	652.790933	-146.356028	397.211078	453.724414	-155.140155	327.776642	473.843206	-84.033957	79.352156	932.357078	-498.716564	131.151732	864.676921	-492.394446	165.797595	877.924304	-489.500877	142.390470	776.534082	-477.304761	197.072805	652.273916	-447.985841	213.606428	648.285975	-319.801354	64.291539	238.401353	-422.019106	11.207039	188.751063	-382.795533	215.497650	156.102704	-454.580045	157.132193	535.754598	-466.032301	155.053113	450.831262	-449.817906	110.155298	375.198250	-444.263228	185.193657	445.980912	-426.937415	309.537923	190.446124	-388.128907	-216.177094	954.521591	-259.176243	-17.898005	80.762619	-461.164883	-17.866357	81.198393	-62.398831	
1252	6.2600	491.576566	1356.909405	-73.808609	527.622445	1359.555319	-353.864183	456.046433	1432.422612	-224.506607	453.894336	1242.309633	-234.369602	548.768131	1107.363563	32.437319	766.326259	937.587361	-68.462189	620.033565	1178.701609	-581.834624	769.772368	924.916671	-475.715285	-116.365831	1206.856061	-301.414153	119.941741	1205.539585	-478.644292	73.374707	1245.073500	-79.582448	148.579305	1138.818625	-444.534645	103.440414	1194.230178	-131.475327	-83.340197	1287.442065	-253.960539	-74.117417	1270.035814	-345.560837	57.945590	1138.593408	-52.557434	11.601638	1065.146040	-481.774029	196.666270	1100.192020	-47.812880	285.596813	1103.991827	-55.798269	363.569010	1064.052282	-63.328413	292.075835	1137.846222	-71.557185	466.727939	1042.975324	-75.667137	483.632859	1018.218976	-212.516367	413.264724	897.579954	-68.846966	392.658171	812.784451	-85.000317	333.693912	748.797915	-86.952114	418.411025	803.026706	-113.965605	253.126766	628.223593	-98.117269	193.363144	647.160016	-145.959424	407.898878	456.122950	-155.181027	337.901401	473.350748	-83.998376	78.268954	933.788388	-499.119389	130.986789	866.786532	-493.601503	165.533166	880.455862	-491.806442	143.775306	778.855932	-478.368395	199.923995	654.770559	-449.861934	218.374456	651.385344	-322.106475	56.755729	244.906405	-421.915391	2.728378	196.821789	-382.403600	206.148224	158.250226	-454.429425	157.307259	539.117365	-467.278825	153.079322	454.366986	-450.656000	106.470071	379.878779	-444.369949	183.273543	448.852117	-427.869887	301.222438	189.754971	-388.104779	-216.200258	954.506362	-259.168018	-17.879578	80.783758	-461.176353	-17.849743	81.231737	-62.395868	
1253	6.2650	492.556660	1354.934873	-73.993255	528.314845	1356.394602	-351.991284	457.044167	1430.624920	-223.876433	453.506993	1240.565981	-232.166379	549.054408	1106.157451	31.457296	766.496563	937.058526	-68.366424	625.745382	1179.607170	-578.793319	769.739753	924.834678	-475.825095	-116.579178	1209.467801	-301.848916	119.779539	1205.814298	-478.559996	72.356589	1247.834581	-79.452505	147.961888	1138.889891	-444.472218	101.548179	1195.867997	-130.855080	-83.599758	1289.940280	-253.637760	-73.922833	1272.180241	-345.383673	55.787433	1139.865263	-52.349501	10.156593	1066.317527	-481.883553	194.554974	1101.391001	-48.430590	283.670073	1104.458164	-57.167163	361.260059	1063.995936	-64.622376	290.063590	1138.465534	-72.472749	464.184373	1041.911712	-77.392102	480.630284	1017.543807	-213.514337	413.757742	895.427177	-69.623250	394.713139	810.243550	-85.587669	337.085049	745.119397	-87.001074	420.194565	801.035247	-115.033751	257.425165	623.251172	-97.844363	196.293270	640.464957	-145.354228	418.252653	458.070635	-155.088700	347.592138	472.393490	-83.700887	77.638387	935.341803	-499.306238	131.499058	869.235708	-494.715061	165.789484	883.290366	-493.914500	145.956781	781.445396	-479.594373	203.687851	657.669377	-451.647878	223.903533	654.972304	-324.296694	49.810255	251.994701	-420.910472	-5.075116	205.840024	-381.826713	196.893350	161.066998	-454.227410	158.093417	543.002045	-468.628134	151.748087	458.476443	-451.450383	103.235821	385.208297	-444.545333	181.921894	452.264201	-428.746198	293.125933	189.498571	-388.188484	-216.201771	954.469001	-259.152856	-17.883355	80.802541	-461.159250	-17.846786	81.213322	-62.386522	
